# xmcd
#
# Track frame offsets: 
#        150
#        16569
#        30261
#        50427
#        73399
#        99023
#        116728
#        139057
#        156605
#        185379
#
# Disc length: 2862 seconds
#
# Revision: 0
# Processed by: cddbd v1.5.2PL0 Copyright (c) Steve Scherf et al.
# Submitted via: ExactAudioCopy v0.99pb5
#
DISCID=7d0b2c0a
DTITLE=Rich Rhocks - Guns and Guitars
DYEAR=2009
DGENRE=Blues
TTITLE0=So Good
TTITLE1=Wicked Woman
TTITLE2=I Went Down To Memphis
TTITLE3=River Song
TTITLE4=Deja Vu
TTITLE5=I Got My Eye On You
TTITLE6=Endless Time To Kill
TTITLE7=Vegas Fleas
TTITLE8=Flurry
TTITLE9=Linger
EXTD=
EXTT0=
EXTT1=
EXTT2=
EXTT3=
EXTT4=
EXTT5=
EXTT6=
EXTT7=
EXTT8=
EXTT9=
PLAYORDER=
